<svg xmlns="http://www.w3.org/2000/svg" viewBox="0 0 100 100">
  <defs>
    <linearGradient id="grad" x1="0%" y1="0%" x2="100%" y2="100%">
      <stop offset="0%" style="stop-color:#3B82F6;stop-opacity:1" />
      <stop offset="100%" style="stop-color:#2563EB;stop-opacity:1" />
    </linearGradient>
  </defs>
  <rect width="100" height="100" rx="20" fill="url(#grad)"/>
  <path d="M50 25 C35 25 25 35 25 50 C25 60 30 68 40 72 L40 65 C33 62 28 57 28 50 C28 38 38 28 50 28 C62 28 72 38 72 50 C72 57 67 62 60 65 L60 72 C70 68 75 60 75 50 C75 35 65 25 50 25 Z" fill="white"/>
  <path d="M50 40 C44 40 40 44 40 50 C40 54 42 57 45 59 L45 75 L55 75 L55 59 C58 57 60 54 60 50 C60 44 56 40 50 40 Z" fill="white"/>
</svg>
